Coordinates
version=1
nRows=8
nColumns=63
inDegrees=yes

Units are S.I. units (second, meters, Newtons, ...)
If the header above contains a line with 'inDegrees', this indicates whether rotational values are in degrees (yes) or radians (no).

endheader
time	pelvis_tilt	pelvis_list	pelvis_rotation	pelvis_tx	pelvis_ty	pelvis_tz	hip_flexion_r	hip_adduction_r	hip_rotation_r	knee_angle_r	knee_angle_r_beta	ankle_angle_r	subtalar_angle_r	mtp_angle_r	hip_flexion_l	hip_adduction_l	hip_rotation_l	knee_angle_l	knee_angle_l_beta	ankle_angle_l	subtalar_angle_l	mtp_angle_l	L5_S1_Flex_Ext	L5_S1_Lat_Bending	L5_S1_axial_rotation	L4_L5_Flex_Ext	L4_L5_Lat_Bending	L4_L5_axial_rotation	L3_L4_Flex_Ext	L3_L4_Lat_Bending	L3_L4_axial_rotation	L2_L3_Flex_Ext	L2_L3_Lat_Bending	L2_L3_axial_rotation	L1_L2_Flex_Ext	L1_L2_Lat_Bending	L1_L2_axial_rotation	L1_T12_Flex_Ext	L1_T12_Lat_Bending	L1_T12_axial_rotation	Abs_r3	Abs_r2	Abs_r1	Abs_t1	Abs_t2	neck_flexion	neck_bending	neck_rotation	arm_flex_r	arm_add_r	arm_rot_r	elbow_flex_r	pro_sup_r	wrist_flex_r	wrist_dev_r	arm_flex_l	arm_add_l	arm_rot_l	elbow_flex_l	pro_sup_l	wrist_flex_l	wrist_dev_l
0.000000	1.470101	-5.422031	92.615219	0.210901	0.790491	0.664981	4.941316	0.275063	-10.789122	8.730993	0.152385	14.014261	9.685448	0.000000	7.840807	-2.511812	8.622237	12.921669	0.225526	-3.051348	-18.952857	0.000000	0.311302	0.404118	-1.524593	0.578119	0.537477	-1.619881	0.511438	0.982572	-1.619881	0.355787	0.982572	-1.334019	0.289075	0.824077	-1.238732	0.177878	0.625978	-1.143445	2.223599	4.571461	-8.479331	0.000000	0.000000	28.092529	0.201763	7.208786	10.761245	-6.496802	52.110174	40.367022	65.283564	7.964155	10.734122	9.624635	-4.255726	53.000758	44.326137	41.813148	-5.532543	14.252222
0.016949	0.948340	-5.219703	92.256365	0.211144	0.791326	0.664114	4.672308	-0.341284	-11.503618	8.924659	0.155765	13.814970	11.190975	0.000000	7.453720	-1.956484	8.359518	12.417857	0.216732	-1.888088	-18.625621	0.000000	0.296788	0.333702	-1.439574	0.551164	0.443824	-1.529547	0.487592	0.811364	-1.529547	0.339198	0.811364	-1.259627	0.275597	0.680486	-1.169654	0.169584	0.516905	-1.079680	2.119924	3.774906	-8.006478	0.000000	0.000000	28.068581	0.523788	6.537076	10.740389	-6.326477	52.213689	40.267226	64.996134	7.931807	10.961812	9.371411	-4.489519	52.792488	44.450934	43.318883	-4.521116	14.628681
0.033898	0.504095	-5.058816	91.990729	0.211380	0.791995	0.663380	4.436684	-0.853680	-12.034838	9.035340	0.157696	13.680612	12.347693	0.000000	7.133072	-1.487141	8.159290	11.998127	0.209407	-0.994643	-18.383618	0.000000	0.285610	0.272176	-1.379580	0.530406	0.361994	-1.465803	0.469229	0.661769	-1.465803	0.326424	0.661769	-1.207132	0.265217	0.555021	-1.120908	0.163198	0.421601	-1.034685	2.040084	3.078909	-7.672807	0.000000	0.000000	28.050491	0.773851	5.944509	10.720216	-6.168923	52.396081	40.198049	64.433092	7.872869	11.144287	9.067222	-4.714737	52.557102	44.545564	44.626509	-3.554014	14.911250
0.050847	0.132439	-4.935925	91.809959	0.211605	0.792511	0.662779	4.233774	-1.270061	-12.402369	9.073441	0.158361	13.604523	13.189009	0.000000	6.875233	-1.097614	8.017142	11.656460	0.203444	-0.341430	-18.215946	0.000000	0.277411	0.219034	-1.341756	0.515180	0.291315	-1.425616	0.455759	0.532559	-1.425616	0.317053	0.532559	-1.174037	0.257604	0.446654	-1.090177	0.158513	0.339284	-1.006317	1.981519	2.477757	-7.462446	0.000000	0.000000	28.037592	0.957243	5.422401	10.701251	-6.025262	52.645031	40.158050	63.629859	7.788114	11.287134	8.724262	-4.930436	52.304573	44.611900	45.749393	-2.633262	15.106183
0.067797	-0.171555	-4.847583	91.705706	0.211815	0.792887	0.662311	4.062911	-1.598364	-12.625804	9.049366	0.157941	13.580038	13.748328	0.000000	6.676573	-0.781729	7.928667	11.386838	0.198738	0.101132	-18.111704	0.000000	0.271832	0.173772	-1.323250	0.504819	0.231116	-1.405953	0.446593	0.422508	-1.405953	0.310677	0.422508	-1.157844	0.252423	0.354355	-1.075141	0.155325	0.269172	-0.992438	1.941670	1.965739	-7.359520	0.000000	0.000000	28.029215	1.079258	4.962068	10.684021	-5.896620	52.948222	40.145787	62.621859	7.678318	11.395943	8.354721	-5.135670	52.044872	44.651815	46.700901	-1.760885	15.219735
0.084746	-0.412812	-4.790343	91.669622	0.212006	0.793136	0.661976	3.923426	-1.846526	-12.724731	8.973521	0.156617	13.600495	14.059059	0.000000	6.533462	-0.533313	7.889454	11.183240	0.195184	0.362625	-18.059990	0.000000	0.268515	0.135884	-1.321207	0.498659	0.180725	-1.403782	0.441143	0.330387	-1.403782	0.306886	0.330387	-1.156056	0.249343	0.277094	-1.073480	0.153429	0.210484	-0.990905	1.917976	1.537141	-7.348154	0.000000	0.000000	28.024693	1.145188	4.554827	10.669051	-5.784120	53.293335	40.159819	61.444514	7.544254	11.476302	7.970793	-5.329494	51.787969	44.667180	47.494401	-0.938906	15.258159
0.101695	-0.596260	-4.760760	91.693354	0.212175	0.793271	0.661774	3.814650	-2.022483	-12.718740	8.856311	0.154572	13.659229	14.154607	0.000000	6.442269	-0.346194	7.895094	11.039648	0.192678	0.472630	-18.049903	0.000000	0.267101	0.104865	-1.332772	0.496034	0.139470	-1.416070	0.438820	0.254969	-1.416070	0.305270	0.254969	-1.166175	0.248030	0.213840	-1.082877	0.152622	0.162436	-0.999579	1.907877	1.186253	-7.412476	0.000000	0.000000	28.023358	1.160325	4.191992	10.656868	-5.688886	53.668052	40.198705	60.133246	7.386697	11.533802	7.584669	-5.510965	51.543837	44.659868	48.143260	-0.169350	15.227709
0.118644	-0.726824	-4.755386	91.768555	0.212319	0.793305	0.661705	3.735915	-2.134173	-12.627422	8.708142	0.151986	13.749577	14.068379	0.000000	6.399364	-0.214200	7.941177	10.950043	0.191114	0.460729	-18.070541	0.000000	0.267232	0.080211	-1.355091	0.496277	0.106680	-1.439784	0.439036	0.195024	-1.439784	0.305420	0.195024	-1.185705	0.248152	0.163566	-1.101012	0.152696	0.124246	-1.016318	1.908813	0.907360	-7.536610	0.000000	0.000000	28.024543	1.129962	3.864882	10.647998	-5.612041	54.060055	40.261002	58.723479	7.206422	11.574030	7.208542	-5.679138	51.322447	44.631750	48.660843	0.545758	15.134638
